<svg xmlns="http://www.w3.org/2000/svg" viewBox="0 0 94 122"><path fill="#fff" d="M8.1 89.9 47.6 110l38-20.1V11.3H8.1z"/><path fill="#f2f3f2" d="M86.4 11.6 7.3 91.3l41 20.3 38.1-19.5z"/><path fill="#dcdedc" d="M5.5 37.5v54.1l1.4.7 39.5 20.1 1.2.6 1.2-.6 38.1-20.1 1.4-.7V8.7H5.5v28.8zm2.6 52.6V11.3h77.6v78.8l-38.1 20.1L8.1 90.1z"/><path fill="#ff492c" d="M46.9 12.6c.4 0 .8 0 1.2.1L46.9 15c-1.8-.1-3.4 1.3-3.5 3.1-.1 1.8 1.3 3.4 3.1 3.5h.4c.8 0 1.6-.3 2.2-.8l1.3 2.2c-1 .7-2.2 1.1-3.5 1.1-3.2.1-5.9-2.3-6-5.5-.1-3.2 2.3-5.9 5.5-6h.5zm4.1 4.9 1.5 2.5-1.5 2.4-1.4-2.4h-2.9l1.5-2.5H51zm-2.4-.9c0-.4.1-.8.3-1.1.2-.3.6-.6.9-.8l.2-.1c.4-.2.5-.3.5-.5s-.3-.4-.5-.4c-.4 0-.7.2-.9.6l-.5-.5c.1-.2.3-.4.5-.6.3-.2.6-.2.9-.2.3 0 .7.1.9.3.2.2.4.5.4.8 0 .5-.3.9-.9 1.1l-.3.2c-.3.2-.5.3-.6.6h1.8v.7l-2.7-.1zm-1.7 12.5 9.5-5.4v-15H37.3v14.9l9.6 5.5zm43.3 35.4H3.6l-3.2 7 3.2 7h86.6l3.1-7z"/><path fill="#252530" d="M19.09 60q-.09 0-.15-.06-.06-.07-.06-.16V47.62q0-.09.06-.16.06-.06.15-.06h2.11q.09 0 .15.06.07.07.07.16v10.11q0 .09.09.09h5.88q.09 0 .16.06.06.07.06.16v1.74q0 .09-.06.16-.07.06-.16.06h-8.3Zm18.11-5.58q.11.68.07 1.53-.01.22-.23.22h-5.56q-.11 0-.07.09.05.36.19.72.47 1 1.91 1 1.15-.01 1.82-.93.07-.11.16-.11.06 0 .13.07l1.29 1.28q.09.09.09.16 0 .04-.07.15-.59.73-1.53 1.14-.93.4-2.05.4-1.55 0-2.62-.7t-1.54-1.96q-.38-.9-.38-2.36 0-.99.27-1.74.42-1.28 1.45-2.04 1.04-.75 2.46-.75 1.8 0 2.89 1.04t1.32 2.79Zm-4.19-1.64q-1.14 0-1.5 1.06-.07.24-.12.58 0 .09.09.09h3.11q.11 0 .07-.09-.09-.52-.09-.5-.16-.54-.56-.84-.41-.3-1-.3Zm9.43-2.18q1.17 0 2.09.41.92.4 1.43 1.11.51.7.51 1.56v6.1q0 .09-.06.16-.06.06-.15.06h-2.11q-.09 0-.15-.06-.07-.07-.07-.16v-.59q0-.05-.03-.07-.04-.02-.07.03-.76.99-2.43.99-1.41 0-2.27-.68-.87-.68-.87-2.02 0-1.38.98-2.15.97-.76 2.77-.76h1.83q.09 0 .09-.09v-.4q0-.59-.36-.93-.36-.33-1.08-.33-.55 0-.92.2t-.48.56q-.05.2-.23.18l-2.18-.29q-.22-.04-.2-.16.07-.76.6-1.37.53-.61 1.41-.95.87-.35 1.95-.35Zm-.36 7.65q.77 0 1.31-.41t.54-1.06v-.65q0-.09-.09-.09h-1.29q-.81 0-1.27.31-.46.3-.46.86 0 .49.34.76.34.28.92.28ZM54 47.62q0-.09.06-.16.06-.06.15-.06h2.11q.09 0 .15.06.06.07.06.16v12.16q0 .09-.06.16-.06.06-.15.06h-2.11q-.09 0-.15-.06-.06-.07-.06-.16v-.59q0-.05-.04-.06-.04-.01-.07.02-.76.99-2.07.99-1.26 0-2.17-.7-.91-.7-1.31-1.92-.3-.94-.3-2.18 0-1.28.32-2.23.42-1.16 1.31-1.83.89-.68 2.2-.68 1.3 0 2.02.9.03.06.07.04.04-.02.04-.07v-3.85Zm-.38 9.57q.36-.66.36-1.82 0-1.2-.4-1.89-.41-.7-1.2-.7-.85 0-1.28.7-.45.71-.45 1.91 0 1.08.38 1.8.45.78 1.33.78.81 0 1.26-.78Zm13.01-2.77q.11.68.07 1.53-.01.22-.23.22h-5.56q-.11 0-.07.09.05.36.19.72.47 1 1.91 1 1.15-.01 1.82-.93.07-.11.16-.11.06 0 .13.07l1.29 1.28q.09.09.09.16 0 .04-.07.15-.59.73-1.53 1.14-.93.4-2.05.4-1.55 0-2.62-.7t-1.54-1.96q-.38-.9-.38-2.36 0-.99.27-1.74.42-1.28 1.45-2.04 1.04-.75 2.46-.75 1.8 0 2.89 1.04t1.32 2.79Zm-4.19-1.64q-1.14 0-1.5 1.06-.07.24-.12.58 0 .09.09.09h3.11q.11 0 .07-.09-.09-.52-.09-.5-.16-.54-.56-.84-.41-.3-1-.3Zm10.44-2.16q.65 0 1.02.25.15.08.11.27l-.38 2.06q-.01.21-.25.12-.27-.09-.63-.09-.14 0-.39.04-.65.05-1.1.47-.45.43-.45 1.13v4.91q0 .09-.06.16-.07.06-.16.06h-2.1q-.09 0-.16-.06-.06-.07-.06-.16v-8.82q0-.09.06-.15.07-.06.16-.06h2.1q.09 0 .16.06.06.06.06.15v.69q0 .05.03.07.04.02.06-.02.74-1.08 1.98-1.08Z"/><path fill="#fff" d="M27.03 68.48q.05-.08.14-.08h.92q.05 0 .08.04.04.03.04.08v6.76q0 .05-.04.08-.03.04-.08.04h-.92q-.05 0-.09-.04-.03-.03-.03-.08v-4.77q0-.03-.02-.04-.03-.01-.04.02l-1.25 1.92q-.05.08-.14.08h-.46q-.09 0-.14-.08l-1.26-1.91q-.01-.03-.03-.02-.03.01-.03.04v4.76q0 .05-.04.08-.03.04-.08.04h-.92q-.05 0-.08-.04-.04-.03-.04-.08v-6.76q0-.05.04-.08.03-.04.08-.04h.92q.09 0 .14.08l1.63 2.47q.02.02.04.02t.03-.02l1.63-2.47Zm3.19 1.11q-.31 0-.51-.2t-.2-.51q0-.31.2-.51t.51-.2q.31 0 .51.2t.2.51q0 .31-.2.51t-.51.2Zm-.48 5.81q-.05 0-.08-.04-.04-.03-.04-.08V70.4q0-.05.04-.08.03-.04.08-.04h.92q.05 0 .09.04.03.03.03.08v4.88q0 .05-.03.08-.04.04-.09.04h-.92Zm5.54-6.88q0-.05.04-.08.03-.04.08-.04h.92q.05 0 .09.04.03.03.03.08v6.76q0 .05-.03.08-.04.04-.09.04h-.92q-.05 0-.08-.04-.04-.03-.04-.08v-.3q0-.03-.02-.04-.02-.01-.04.02-.44.52-1.15.52t-1.2-.37q-.49-.37-.71-1.03-.18-.56-.18-1.25 0-.71.17-1.22.22-.66.71-1.03t1.23-.37q.69 0 1.13.5.02.02.04.02.02-.01.02-.04v-2.17ZM35.04 74q.23-.41.23-1.16 0-.78-.25-1.19-.27-.44-.76-.44-.51 0-.8.42-.3.44-.3 1.22 0 .7.24 1.15.28.48.85.48.51 0 .79-.48Zm2.48-1.11q-.05 0-.08-.03-.04-.04-.04-.09v-.76q0-.05.04-.09.03-.03.08-.03h3.15q.05 0 .08.03.04.04.04.09v.76q0 .05-.04.09-.03.03-.08.03h-3.15Zm8.84-4.41q.05-.08.14-.08h.92q.05 0 .09.04.03.03.03.08v6.76q0 .05-.03.08-.04.04-.09.04h-.92q-.05 0-.08-.04-.04-.03-.04-.08v-4.77q0-.03-.02-.04-.03-.01-.04.02l-1.25 1.92q-.05.08-.14.08h-.46q-.09 0-.14-.08l-1.26-1.91q-.01-.03-.03-.02-.03.01-.03.04v4.76q0 .05-.03.08-.04.04-.09.04h-.92q-.05 0-.08-.04-.04-.03-.04-.08v-6.76q0-.05.04-.08.03-.04.08-.04h.92q.09 0 .14.08l1.63 2.47q.02.02.04.02t.03-.02l1.63-2.47Zm4.48 1.73q.63 0 1.11.22.48.22.74.6.26.39.26.88v3.37q0 .05-.03.08-.04.04-.09.04h-.92q-.05 0-.08-.04-.04-.03-.04-.08v-.32q0-.03-.02-.04-.02 0-.04.02-.49.54-1.42.54-.75 0-1.23-.38-.49-.38-.49-1.13 0-.78.55-1.22.54-.43 1.53-.43h1.07q.05 0 .05-.05v-.24q0-.39-.23-.61-.23-.21-.69-.21-.38 0-.61.14-.24.13-.3.37-.03.12-.14.1l-.97-.12q-.05-.01-.08-.03-.04-.03-.03-.07.08-.61.66-1 .57-.39 1.44-.39Zm-.24 4.35q.49 0 .84-.26t.35-.66v-.47q0-.05-.05-.05h-.84q-.53 0-.83.2-.31.2-.31.57 0 .32.24.49.23.18.6.18Zm5.89-4.33q.32 0 .56.13.08.04.06.15l-.17.9q-.01.12-.14.07-.15-.05-.35-.05-.13 0-.2.01-.42.02-.7.29-.28.28-.28.72v2.83q0 .05-.03.08-.04.04-.09.04h-.92q-.05 0-.08-.04-.04-.03-.04-.08v-4.87q0-.05.04-.09.03-.03.08-.03h.92q.05 0 .09.03.03.04.03.09v.45q0 .04.02.04.01.01.03-.02.42-.65 1.17-.65Zm1.5 5.17q-.05 0-.08-.04-.04-.03-.04-.08v-6.76q0-.05.04-.08.03-.04.08-.04h.92q.05 0 .08.04.04.03.04.08v3.61q0 .03.02.04.02.01.04-.02l1.62-1.79q.07-.07.15-.07h1.06q.1 0 .1.07 0 .03-.03.08l-1.27 1.52q-.03.03-.01.07l1.5 3.23q.02.04.02.06 0 .08-.11.08h-.97q-.1 0-.14-.09l-1.09-2.54q-.01-.02-.04-.03-.02 0-.03.02l-.8.92q-.02.04-.02.07v1.53q0 .05-.04.08-.03.04-.08.04h-.92Zm9.05-3.13q.04.25.04.56l-.01.31q0 .12-.12.12h-3.13q-.05 0-.05.05.03.33.09.45.24.72 1.17.73.68 0 1.08-.56.04-.06.1-.06.04 0 .07.03l.62.51q.09.07.03.16-.31.44-.83.68-.51.24-1.14.24-.78 0-1.33-.35-.54-.35-.79-.98-.23-.54-.23-1.5 0-.58.12-.94.2-.7.76-1.11.55-.4 1.33-.4 1.97 0 2.22 2.06Zm-2.22-1.06q-.37 0-.62.19-.24.18-.34.51-.06.17-.08.44-.02.05.04.05h2.03q.05 0 .05-.05-.02-.25-.06-.38-.09-.36-.35-.56-.27-.2-.67-.2Zm5.93-.1q0 .05-.03.08-.04.04-.09.04h-1.02q-.05 0-.05.05v2.41q0 .38.17.55.16.17.52.17h.3q.05 0 .08.03.04.04.04.09v.75q0 .11-.12.13l-.52.01q-.79 0-1.18-.27-.39-.27-.4-1.02v-2.85q0-.05-.05-.05h-.57q-.05 0-.08-.04-.04-.03-.04-.08v-.7q0-.05.04-.09.03-.03.08-.03h.57q.05 0 .05-.05v-1.17q0-.05.04-.09.03-.03.08-.03h.87q.05 0 .08.03.04.04.04.09v1.17q0 .05.05.05h1.02q.05 0 .09.03.03.04.03.09v.7Z"/><path fill="#252530" d="M30.57 89.58q-.8 0-1.4-.26-.6-.25-.92-.73-.33-.47-.33-1.1v-.22q0-.05.04-.08.03-.04.08-.04h1.14q.05 0 .09.04.03.03.03.08v.15q0 .4.37.67.37.28 1 .28.53 0 .79-.22.26-.23.26-.56 0-.24-.16-.4-.16-.17-.44-.29-.27-.13-.87-.35-.67-.23-1.14-.47-.46-.24-.77-.66-.32-.41-.32-1.02 0-.6.31-1.05.31-.45.86-.69.55-.24 1.27-.24.76 0 1.35.27.6.27.94.76.33.48.33 1.12v.15q0 .05-.03.08-.04.04-.09.04h-1.15q-.05 0-.08-.04-.04-.03-.04-.08v-.08q0-.42-.34-.72-.35-.29-.95-.29-.47 0-.74.2-.26.2-.26.55 0 .25.16.42.15.17.46.3.3.14.94.37.71.26 1.11.46.41.2.74.59.32.4.32 1.03 0 .94-.69 1.48-.69.55-1.87.55Zm6.09 0q-.77 0-1.35-.3-.59-.3-.92-.84-.32-.55-.32-1.26v-4.56q0-.05.03-.08.04-.04.09-.04h1.17q.05 0 .08.04.04.03.04.08v4.57q0 .53.33.85.32.33.85.33t.86-.33q.32-.32.32-.85v-4.57q0-.05.04-.08.03-.04.08-.04h1.17q.05 0 .09.04.03.03.03.08v4.56q0 .71-.32 1.26-.33.54-.91.84-.59.3-1.36.3Zm8.25-7q.05-.08.14-.08h1.17q.05 0 .09.04.03.03.03.08v6.76q0 .05-.03.08-.04.04-.09.04h-1.17q-.05 0-.08-.04-.04-.03-.04-.08v-4.41q0-.04-.02-.04t-.04.03l-1.06 1.66q-.05.08-.14.08h-.59q-.09 0-.14-.08l-1.06-1.66q-.02-.03-.04-.03-.02.01-.02.05v4.4q0 .05-.04.08-.03.04-.08.04h-1.17q-.05 0-.09-.04-.03-.03-.03-.08v-6.76q0-.05.03-.08.04-.04.09-.04h1.17q.09 0 .14.08l1.5 2.33q.03.06.06 0l1.51-2.33Zm7.15 0q.05-.08.14-.08h1.17q.05 0 .08.04.04.03.04.08v6.76q0 .05-.04.08-.03.04-.08.04H52.2q-.05 0-.09-.04-.03-.03-.03-.08v-4.41q0-.04-.02-.04t-.04.03l-1.06 1.66q-.05.08-.14.08h-.59q-.09 0-.14-.08l-1.06-1.66q-.02-.03-.04-.03-.02.01-.02.05v4.4q0 .05-.03.08-.04.04-.09.04h-1.17q-.05 0-.08-.04-.04-.03-.04-.08v-6.76q0-.05.04-.08.03-.04.08-.04h1.17q.09 0 .14.08l1.5 2.33q.03.06.06 0l1.51-2.33Zm7.51 1.01q0 .05-.03.08-.04.04-.09.04h-3.28q-.05 0-.05.05v1.55q0 .05.05.05h2.15q.05 0 .08.03.04.04.04.09v.97q0 .05-.04.09-.03.03-.08.03h-2.15q-.05 0-.05.05v1.62q0 .05.05.05h3.28q.05 0 .09.03.03.04.03.09v.97q0 .05-.03.08-.04.04-.09.04h-4.62q-.05 0-.09-.04-.03-.03-.03-.08v-6.76q0-.05.03-.08.04-.04.09-.04h4.62q.05 0 .09.04.03.03.03.08v.97Zm4.82 5.91q-.1 0-.14-.09L63 86.64q-.02-.04-.06-.04h-.93q-.05 0-.05.05v2.73q0 .05-.04.08-.03.04-.08.04h-1.17q-.05 0-.09-.04-.03-.03-.03-.08v-6.76q0-.05.03-.08.04-.04.09-.04h2.86q.64 0 1.12.26.49.26.75.74.27.48.27 1.11 0 .68-.34 1.16-.34.49-.95.69-.05.02-.03.07l1.36 2.83q.02.04.02.06 0 .08-.11.08h-1.23Zm-2.38-5.79q-.05 0-.05.05v1.71q0 .05.05.05h1.31q.42 0 .68-.25.27-.25.27-.65t-.27-.66q-.26-.25-.68-.25h-1.31ZM38.06 97.63q-.02.02-.01.04t.04.02h2.71q.05 0 .09.03.03.04.03.09v.97q0 .05-.03.08-.04.04-.09.04h-4.5q-.05 0-.09-.04-.03-.03-.03-.08v-.92q0-.09.06-.15.49-.48 1-1.04.51-.57.64-.71.28-.33.57-.63.91-1.01.91-1.5 0-.35-.25-.58-.25-.22-.65-.22t-.65.22q-.25.23-.25.6v.25q0 .05-.04.09-.03.03-.08.03h-1.18q-.05 0-.08-.03-.04-.04-.04-.09v-.47q.03-.54.34-.96.31-.41.82-.63.52-.22 1.16-.22.71 0 1.24.26.52.27.81.72.28.45.28 1 0 .42-.21.86t-.63.95q-.31.39-.67.77-.36.38-1.07 1.1l-.15.15Zm6.11 1.38q-1.1 0-1.74-.62-.64-.61-.64-1.67v-2.64q0-1.04.64-1.65.64-.61 1.74-.61t1.75.61q.64.61.64 1.65v2.64q0 1.06-.64 1.67-.65.62-1.75.62Zm0-1.21q.45 0 .72-.28.26-.27.26-.73v-2.75q0-.46-.26-.73-.27-.28-.72-.28-.44 0-.7.28-.27.27-.27.73v2.75q0 .46.27.73.26.28.7.28Zm5.19-.17q-.02.02-.01.04t.04.02h2.71q.05 0 .09.03.03.04.03.09v.97q0 .05-.03.08-.04.04-.09.04h-4.5q-.05 0-.08-.04-.04-.03-.04-.08v-.92q0-.09.06-.15.49-.48 1-1.04.51-.57.64-.71.28-.33.57-.63.91-1.01.91-1.5 0-.35-.25-.58-.25-.22-.65-.22t-.65.22q-.25.23-.25.6v.25q0 .05-.03.09-.04.03-.09.03h-1.18q-.05 0-.08-.03-.04-.04-.04-.09v-.47q.03-.54.34-.96.31-.41.83-.63.51-.22 1.15-.22.71 0 1.24.26.52.27.81.72.28.45.28 1 0 .42-.21.86t-.63.95q-.31.39-.67.77-.36.38-1.07 1.1l-.15.15Zm7.9-2.07q.2.46.2 1.06 0 .54-.18 1-.24.64-.8 1-.57.36-1.34.36-.76 0-1.33-.38-.58-.38-.83-1.03-.14-.39-.16-.84 0-.12.12-.12h1.18q.12 0 .12.12.04.33.11.49.09.26.3.4.2.15.48.15.56 0 .77-.49.14-.3.14-.7 0-.47-.15-.77-.23-.47-.77-.47-.11 0-.23.06-.12.07-.29.19-.04.03-.08.03-.06 0-.09-.06l-.59-.83q-.02-.03-.02-.07 0-.06.04-.1l1.59-1.39q.02-.02.02-.04-.01-.02-.04-.02h-2.35q-.05 0-.08-.04-.04-.03-.04-.08v-.97q0-.05.04-.08.03-.04.08-.04h4.17q.05 0 .09.04.03.03.03.08v1.1q0 .08-.07.15l-1.31 1.2q-.02.02-.01.04 0 .02.04.02.87.17 1.24 1.03Z"/></svg>