<svg xmlns="http://www.w3.org/2000/svg" viewBox="0 0 94 122"><path fill="#fff" d="M8.1 89.9 47.6 110l38-20.1V11.3H8.1z"/><path fill="#f2f3f2" d="M86.4 11.6 7.3 91.3l41 20.3 38.1-19.5z"/><path fill="#dcdedc" d="M5.5 37.5v54.1l1.4.7 39.5 20.1 1.2.6 1.2-.6 38.1-20.1 1.4-.7V8.7H5.5v28.8zm2.6 52.6V11.3h77.6v78.8l-38.1 20.1L8.1 90.1z"/><path fill="#ff492c" d="M46.9 12.6c.4 0 .8 0 1.2.1L46.9 15c-1.8-.1-3.4 1.3-3.5 3.1-.1 1.8 1.3 3.4 3.1 3.5h.4c.8 0 1.6-.3 2.2-.8l1.3 2.2c-1 .7-2.2 1.1-3.5 1.1-3.2.1-5.9-2.3-6-5.5-.1-3.2 2.3-5.9 5.5-6h.5zm4.1 4.9 1.5 2.5-1.5 2.4-1.4-2.4h-2.9l1.5-2.5H51zm-2.4-.9c0-.4.1-.8.3-1.1.2-.3.6-.6.9-.8l.2-.1c.4-.2.5-.3.5-.5s-.3-.4-.5-.4c-.4 0-.7.2-.9.6l-.5-.5c.1-.2.3-.4.5-.6.3-.2.6-.2.9-.2.3 0 .7.1.9.3.2.2.4.5.4.8 0 .5-.3.9-.9 1.1l-.3.2c-.3.2-.5.3-.6.6h1.8v.7l-2.7-.1zm-1.7 12.5 9.5-5.4v-15H37.3v14.9l9.6 5.5zM90.2 64.5H3.6l-3.2 7 3.2 7h86.6l3.1-7z"/><path fill="#252530" d="M19.09 60q-.09 0-.15-.06-.06-.07-.06-.16V47.62q0-.09.06-.16.06-.06.15-.06h2.11q.09 0 .15.06.07.07.07.16v10.11q0 .09.09.09h5.88q.09 0 .16.06.06.07.06.16v1.74q0 .09-.06.16-.07.06-.16.06h-8.3Zm18.11-5.58q.11.68.07 1.53-.01.22-.23.22h-5.56q-.11 0-.07.09.05.36.19.72.47 1 1.91 1 1.15-.01 1.82-.93.07-.11.16-.11.06 0 .13.07l1.29 1.28q.09.09.09.16 0 .04-.07.15-.59.73-1.53 1.14-.93.4-2.05.4-1.55 0-2.62-.7t-1.54-1.96q-.38-.9-.38-2.36 0-.99.27-1.74.42-1.28 1.45-2.04 1.04-.75 2.46-.75 1.8 0 2.89 1.04t1.32 2.79Zm-4.19-1.64q-1.14 0-1.5 1.06-.07.24-.12.58 0 .09.09.09h3.11q.11 0 .07-.09-.09-.52-.09-.5-.16-.54-.56-.84-.41-.3-1-.3Zm9.43-2.18q1.17 0 2.09.41.92.4 1.43 1.11.51.7.51 1.56v6.1q0 .09-.06.16-.06.06-.15.06h-2.11q-.09 0-.15-.06-.07-.07-.07-.16v-.59q0-.05-.03-.07-.04-.02-.07.03-.76.99-2.43.99-1.41 0-2.27-.68-.87-.68-.87-2.02 0-1.38.98-2.15.97-.76 2.77-.76h1.83q.09 0 .09-.09v-.4q0-.59-.36-.93-.36-.33-1.08-.33-.55 0-.92.2t-.48.56q-.05.2-.23.18l-2.18-.29q-.22-.04-.2-.16.07-.76.6-1.37.53-.61 1.41-.95.87-.35 1.95-.35Zm-.36 7.65q.77 0 1.31-.41t.54-1.06v-.65q0-.09-.09-.09h-1.29q-.81 0-1.27.31-.46.3-.46.86 0 .49.34.76.34.28.92.28ZM54 47.62q0-.09.06-.16.06-.06.15-.06h2.11q.09 0 .15.06.06.07.06.16v12.16q0 .09-.06.16-.06.06-.15.06h-2.11q-.09 0-.15-.06-.06-.07-.06-.16v-.59q0-.05-.04-.06-.04-.01-.07.02-.76.99-2.07.99-1.26 0-2.17-.7-.91-.7-1.31-1.92-.3-.94-.3-2.18 0-1.28.32-2.23.42-1.16 1.31-1.83.89-.68 2.2-.68 1.3 0 2.02.9.03.06.07.04.04-.02.04-.07v-3.85Zm-.38 9.57q.36-.66.36-1.82 0-1.2-.4-1.89-.41-.7-1.2-.7-.85 0-1.28.7-.45.71-.45 1.91 0 1.08.38 1.8.45.78 1.33.78.81 0 1.26-.78Zm13.01-2.77q.11.68.07 1.53-.01.22-.23.22h-5.56q-.11 0-.07.09.05.36.19.72.47 1 1.91 1 1.15-.01 1.82-.93.07-.11.16-.11.06 0 .13.07l1.29 1.28q.09.09.09.16 0 .04-.07.15-.59.73-1.53 1.14-.93.4-2.05.4-1.55 0-2.62-.7t-1.54-1.96q-.38-.9-.38-2.36 0-.99.27-1.74.42-1.28 1.45-2.04 1.04-.75 2.46-.75 1.8 0 2.89 1.04t1.32 2.79Zm-4.19-1.64q-1.14 0-1.5 1.06-.07.24-.12.58 0 .09.09.09h3.11q.11 0 .07-.09-.09-.52-.09-.5-.16-.54-.56-.84-.41-.3-1-.3Zm10.44-2.16q.65 0 1.02.25.15.08.11.27l-.38 2.06q-.01.21-.25.12-.27-.09-.63-.09-.14 0-.39.04-.65.05-1.1.47-.45.43-.45 1.13v4.91q0 .09-.06.16-.07.06-.16.06h-2.1q-.09 0-.16-.06-.06-.07-.06-.16v-8.82q0-.09.06-.15.07-.06.16-.06h2.1q.09 0 .16.06.06.06.06.15v.69q0 .05.03.07.04.02.06-.02.74-1.08 1.98-1.08Z"/><path fill="#fff" d="M30.46 75.48q-.78 0-1.36-.25-.58-.25-.9-.7-.31-.45-.31-1.06v-.25q0-.05.04-.09.03-.03.08-.03h.89q.05 0 .09.03.03.04.03.09v.19q0 .46.41.76.41.31 1.12.31.61 0 .92-.26.31-.26.31-.67 0-.28-.17-.48-.17-.19-.48-.35-.32-.16-.95-.4-.71-.26-1.15-.49-.44-.23-.73-.63-.3-.39-.3-.98 0-.88.64-1.39.64-.51 1.71-.51.75 0 1.33.26.57.26.89.73.32.46.32 1.07v.17q0 .05-.04.09-.03.03-.08.03h-.9q-.05 0-.08-.03-.04-.04-.04-.09v-.11q0-.47-.38-.79-.39-.33-1.07-.33-.55 0-.85.23-.31.23-.31.65 0 .3.16.49t.48.34q.32.16.99.4.71.27 1.14.49.42.22.73.61.3.4.3.99 0 .9-.67 1.43-.66.53-1.81.53Zm6.1 0q-.74 0-1.31-.29-.57-.29-.88-.82-.32-.54-.32-1.24v-4.61q0-.05.04-.08.03-.04.08-.04h.92q.05 0 .09.04.03.03.03.08v4.63q0 .59.37.96t.98.37q.61 0 .98-.37t.37-.96v-4.63q0-.05.04-.08.03-.04.08-.04h.92q.05 0 .09.04.03.03.03.08v4.61q0 .7-.31 1.24-.31.53-.88.82-.57.29-1.32.29Zm8.42-7q.05-.08.14-.08h.92q.05 0 .09.04.03.03.03.08v6.76q0 .05-.03.08-.04.04-.09.04h-.92q-.05 0-.09-.04-.03-.03-.03-.08v-4.77q0-.03-.03-.04-.02-.01-.03.02l-1.25 1.92q-.05.08-.14.08h-.46q-.09 0-.14-.08l-1.26-1.91q-.01-.03-.04-.02-.02.01-.02.04v4.76q0 .05-.03.08-.04.04-.09.04h-.92q-.05 0-.08-.04-.04-.03-.04-.08v-6.76q0-.05.04-.08.03-.04.08-.04h.92q.09 0 .14.08l1.63 2.47q.02.02.04.02t.03-.02l1.63-2.47Zm7.15 0q.05-.08.14-.08h.92q.05 0 .08.04.04.03.04.08v6.76q0 .05-.04.08-.03.04-.08.04h-.92q-.05 0-.08-.04-.04-.03-.04-.08v-4.77q0-.03-.02-.04-.03-.01-.04.02l-1.25 1.92q-.05.08-.14.08h-.46q-.09 0-.14-.08l-1.26-1.91q-.01-.03-.03-.02-.03.01-.03.04v4.76q0 .05-.03.08-.04.04-.09.04h-.92q-.05 0-.08-.04-.04-.03-.04-.08v-6.76q0-.05.04-.08.03-.04.08-.04h.92q.09 0 .14.08l1.63 2.47q.02.02.04.02t.03-.02l1.63-2.47Zm7.38.8q0 .05-.03.08-.04.04-.09.04h-3.41q-.05 0-.05.05v1.87q0 .05.05.05h2.29q.05 0 .09.03.03.04.03.09v.76q0 .05-.03.09-.04.03-.09.03h-2.29q-.05 0-.05.05v1.93q0 .05.05.05h3.41q.05 0 .09.04.03.03.03.08v.76q0 .05-.03.08-.04.04-.09.04h-4.5q-.05 0-.08-.04-.04-.03-.04-.08v-6.76q0-.05.04-.08.03-.04.08-.04h4.5q.05 0 .09.04.03.03.03.08v.76Zm5.11 6.12q-.1 0-.14-.09l-1.32-2.88q-.02-.04-.06-.04h-1.2q-.05 0-.05.05v2.84q0 .05-.04.08-.03.04-.08.04h-.92q-.05 0-.08-.04-.04-.03-.04-.08v-6.76q0-.05.04-.08.03-.04.08-.04h2.75q.61 0 1.08.25.47.26.73.72.26.47.26 1.07 0 .69-.36 1.17-.35.49-.98.68-.02 0-.03.02-.01.02 0 .04l1.41 2.91q.02.04.02.06 0 .08-.11.08h-.96Zm-2.72-6q-.05 0-.05.05v1.99q0 .05.05.05h1.5q.48 0 .77-.29.3-.28.3-.75t-.3-.76q-.29-.29-.77-.29h-1.5Z"/><path fill="#252530" d="M34.03 93.46q-.03.03-.02.06.02.03.06.03H38q.07 0 .12.05.06.05.06.12v1.41q0 .07-.06.12-.05.05-.12.05h-6.52q-.08 0-.13-.05t-.05-.12v-1.34q0-.13.09-.22.71-.69 1.45-1.51.74-.82.93-1.02.4-.48.82-.92 1.32-1.46 1.32-2.17 0-.51-.36-.84-.36-.32-.94-.32t-.94.32q-.37.33-.37.87v.36q0 .07-.05.12-.05.05-.12.05h-1.71q-.07 0-.12-.05-.06-.05-.06-.12v-.68q.05-.78.5-1.39.45-.6 1.19-.92.75-.32 1.68-.32 1.03 0 1.79.39.76.38 1.17 1.03.42.66.42 1.45 0 .61-.31 1.25-.3.64-.91 1.38-.45.56-.97 1.12-.52.55-1.55 1.59l-.22.22Zm8.86 2q-1.6 0-2.52-.89-.93-.89-.93-2.43v-3.83q0-1.51.93-2.39.92-.89 2.52-.89 1.59 0 2.53.89.93.88.93 2.39v3.83q0 1.54-.93 2.43-.94.89-2.53.89Zm0-1.75q.65 0 1.03-.4.39-.4.39-1.07v-3.99q0-.66-.39-1.06-.38-.4-1.03-.4-.64 0-1.02.4-.39.4-.39 1.06v3.99q0 .67.39 1.07.38.4 1.02.4Zm7.52-.25q-.03.03-.01.06.01.03.06.03h3.93q.07 0 .12.05.05.05.05.12v1.41q0 .07-.05.12-.05.05-.12.05h-6.53q-.07 0-.12-.05-.05-.05-.05-.12v-1.34q0-.13.08-.22.72-.69 1.45-1.51.74-.82.93-1.02.41-.48.83-.92 1.32-1.46 1.32-2.17 0-.51-.36-.84-.37-.32-.95-.32t-.94.32q-.36.33-.36.87v.36q0 .07-.05.12-.05.05-.13.05H47.8q-.07 0-.12-.05-.05-.05-.05-.12v-.68q.04-.78.49-1.39.45-.6 1.2-.92.75-.32 1.67-.32 1.03 0 1.79.39.77.38 1.18 1.03.41.66.41 1.45 0 .61-.3 1.25-.31.64-.92 1.38-.45.56-.97 1.12-.52.55-1.55 1.59l-.22.22Zm11.46-3q.29.66.29 1.53 0 .79-.26 1.45-.35.93-1.17 1.45-.82.53-1.94.53-1.1 0-1.93-.55-.83-.56-1.2-1.5-.2-.56-.23-1.22 0-.17.17-.17h1.72q.17 0 .17.17.06.48.16.71.13.38.43.59.29.21.7.21.81 0 1.12-.71.2-.43.2-1.01 0-.69-.22-1.12-.33-.68-1.11-.68-.16 0-.34.09-.17.1-.42.27-.06.04-.11.04-.09 0-.13-.08l-.86-1.21q-.03-.04-.03-.1 0-.09.06-.14l2.3-2.02q.03-.03.03-.06-.01-.03-.05-.03h-3.41q-.07 0-.13-.05-.05-.05-.05-.12v-1.41q0-.07.05-.12.06-.05.13-.05h6.04q.08 0 .13.05t.05.12v1.6q0 .11-.1.22l-1.9 1.74q-.03.03-.02.05 0 .03.06.03 1.26.25 1.8 1.5Z"/></svg>
