<svg xmlns="http://www.w3.org/2000/svg" width="65" height="68" fill="none"><g fill="#FF492C" clip-path="url(#a)"><path d="m45.915 47.947 7.262 12.776c-10.673 8.286-27.278 9.288-39.571-.255C-.54 49.478-2.865 30.727 4.708 17.228 13.42 1.702 29.72-1.732 40.215.786c-.284.626-6.57 13.85-6.57 13.85s-.497.033-.778.039c-3.102.133-5.412.865-7.889 2.163a18.85 18.85 0 0 0-6.782 6.09 19.192 19.192 0 0 0-3.178 8.601 18.788 18.788 0 0 0 1.24 9.223c.998 2.466 2.409 4.656 4.3 6.506 2.902 2.84 6.355 4.598 10.358 5.18 3.79.551 7.436.005 10.852-1.736 1.281-.651 2.371-1.372 3.645-2.36.162-.106.306-.241.502-.395Z"/><path d="M45.94 10.3c-.62-.617-1.194-1.187-1.765-1.761-.341-.342-.67-.698-1.018-1.032-.126-.12-.272-.285-.272-.285s.118-.256.169-.36c.668-1.36 1.716-2.354 2.958-3.145a8.135 8.135 0 0 1 4.6-1.289c2.079.042 4.012.567 5.643 1.981 1.204 1.044 1.822 2.368 1.93 3.949.182 2.666-.906 4.709-3.067 6.134-1.27.839-2.639 1.487-4.012 2.255-.757.424-1.404.796-2.144 1.563-.651.77-.683 1.495-.683 1.495l9.836-.012v4.442H42.932v-.43c-.058-2.182.194-4.237 1.18-6.22.906-1.818 2.315-3.15 4.008-4.175 1.304-.79 2.677-1.462 3.984-2.248.806-.485 1.376-1.196 1.371-2.227 0-.884-.635-1.67-1.541-1.916-2.139-.585-4.315.348-5.447 2.333-.165.29-.334.577-.547.949ZM64.965 43.226l-8.289-14.517H40.273L31.93 43.377h16.524l8.154 14.447 8.357-14.597Z"/></g><defs><clipPath id="a"><path fill="#fff" d="M.465.038h64.5v67.245H.465z"/></clipPath></defs></svg>